<svg xmlns="http://www.w3.org/2000/svg" fill="#FFFFFF" viewBox="0 0 233.923 73.564"><g id="Layer_3" data-name="Layer 3"><path d="M126.982,47.007a45.541,45.541,0,0,1-10.08,6.2v8.991h10.08Z"/><path d="M125.876,22.307H116.9V34.594A29.629,29.629,0,0,0,125.876,22.307Z"/><path d="M139.223,21.73A13.871,13.871,0,0,0,126.982,28.5V22.307h-.031A30.636,30.636,0,0,1,116.9,35.864V52.106a44.594,44.594,0,0,0,10.08-6.4V42.322q0-5.543,2.413-7.775t7.164-2.233h1.211c.52-.988,1.007-2,1.453-3.025Z"/><path d="M138.894,32.314h.329v-.641C139.116,31.889,139,32.1,138.894,32.314Z"/><path d="M79.734,34.512a15.207,15.207,0,0,0-4.123-8.282,14.64,14.64,0,0,0-4.38-3.008A29.649,29.649,0,0,0,79.734,34.512Z"/><path d="M61.175,30.515A8.543,8.543,0,0,1,67.655,33q2.376,2.483,2.376,7.163v5.785a44.6,44.6,0,0,0,10.08,6.282V38.8a25.247,25.247,0,0,0-.172-2.851,30.646,30.646,0,0,1-9.99-13.234,18.8,18.8,0,0,0-6.182-.98,16.1,16.1,0,0,0-8.028,2.088c-.05.029-.092.063-.141.092a44.106,44.106,0,0,0,2.646,6.983A10.832,10.832,0,0,1,61.175,30.515Z"/><path d="M80.111,53.327a45.556,45.556,0,0,1-10.08-6.1V62.194h10.08Z"/><path d="M26.149,33.666c-.667-2.187-1.244-4.413-1.713-6.679-.04.05-.086.093-.125.144v-.807c-.263-1.327-.485-2.667-.676-4.017h-9.4V42.181a89.223,89.223,0,0,0,10.08,19.682v-21.7A10.462,10.462,0,0,1,26.149,33.666Z"/><path d="M52.247,40.162q0-4.678,2.412-7.163A7.756,7.756,0,0,1,57.3,31.223a45.174,45.174,0,0,1-2.576-6.744,14.174,14.174,0,0,0-4.633,4.883A13.885,13.885,0,0,0,44.4,23.711a16.155,16.155,0,0,0-4.6-1.623A59.276,59.276,0,0,0,52.247,49.2Z"/><path d="M33.311,30.515A8.543,8.543,0,0,1,39.791,33q2.376,2.483,2.376,7.163V60.483c.5.577,1,1.151,1.523,1.711h8.557V50.753a60.27,60.27,0,0,1-13.49-28.837,20.043,20.043,0,0,0-2.71-.186,15.611,15.611,0,0,0-6.732,1.441,13.664,13.664,0,0,0-4.041,2.858c.45,2.3,1.011,4.552,1.668,6.768A8.831,8.831,0,0,1,33.311,30.515Z"/><path d="M14.231,44.994v17.2h9.094A90.318,90.318,0,0,1,14.231,44.994Z"/><path d="M42.167,62.01v.184h.16C42.272,62.134,42.221,62.07,42.167,62.01Z"/><path d="M103.366,25.258V22.307H93.286v2.919a14.237,14.237,0,0,0,10.08.032Z"/><path d="M98.4,17.555a6.14,6.14,0,0,0,4.428-1.693,5.6,5.6,0,0,0,1.764-4.212,5.6,5.6,0,0,0-1.764-4.212,6.64,6.64,0,0,0-8.856,0,5.6,5.6,0,0,0-1.764,4.212,5.592,5.592,0,0,0,1.764,4.212A6.139,6.139,0,0,0,98.4,17.555Z"/><path d="M103.366,55.876V41.748a30.169,30.169,0,0,1-10.08-.016V55.865a43.424,43.424,0,0,0,10.08.011Z"/><path d="M103.366,40.732V26.322a15.233,15.233,0,0,1-10.08-.032V40.717a29.12,29.12,0,0,0,10.08.015Z"/><path d="M103.366,56.884a44.633,44.633,0,0,1-10.08-.011v5.321h10.08Z"/><path d="M171.909,21.73a13.867,13.867,0,0,0-12.24,6.769V22.307h-1.755a60.114,60.114,0,0,1-8.325,21.5V62.194h3.461a74.833,74.833,0,0,0,6.619-8.259V42.322q0-5.543,2.412-7.775t7.164-2.233h.691a73.852,73.852,0,0,0,1.973-8.756Z"/><path d="M149.589,22.307V41.894A59.06,59.06,0,0,0,156.9,22.307Z"/><path d="M154.413,62.194h5.256V55.659A75.831,75.831,0,0,1,154.413,62.194Z"/><path d="M171.909,28.7q-.423,1.827-.933,3.619h.933Z"/><path d="M197.9,21.658a17.444,17.444,0,0,0-9.252,2.521c-.244.148-.478.31-.713.47a89.716,89.716,0,0,1-7.276,24.661,20.7,20.7,0,0,0,1.438,3.632,18.134,18.134,0,0,0,6.551,7.309,17.354,17.354,0,0,0,1.722.936q2.385-4.414,4.352-9.074a10.754,10.754,0,0,1-3.265-3.707,12.925,12.925,0,0,1-1.476-6.3,12.516,12.516,0,0,1,1.476-6.227,10.123,10.123,0,0,1,9.036-5.364c.224,0,.441.028.662.042q.757-4.132,1.188-8.371A18.305,18.305,0,0,0,197.9,21.658Z"/><path d="M182.1,31.379a23.07,23.07,0,0,0-2.412,10.727,26.573,26.573,0,0,0,.579,5.645A88.765,88.765,0,0,0,186.8,25.485,18.174,18.174,0,0,0,182.1,31.379Z"/><path d="M218.4,22.307a119.549,119.549,0,0,1-8.87,35.875,13.4,13.4,0,0,0,1.552-1.82v5.832h10.152V22.307Z"/><path d="M211.077,22.307v5.687a15.87,15.87,0,0,0-5.364-4.535,14.2,14.2,0,0,0-2.393-.981q-.424,4.138-1.166,8.179a10.412,10.412,0,0,1,3.595,1.262,10.163,10.163,0,0,1,3.888,4.031,12.936,12.936,0,0,1,1.44,6.3,12.932,12.932,0,0,1-1.44,6.3,10.166,10.166,0,0,1-3.888,4.032,10.393,10.393,0,0,1-5.256,1.4,9.839,9.839,0,0,1-4.917-1.32q-1.938,4.577-4.289,8.925a17.209,17.209,0,0,0,6.542,1.252,16.423,16.423,0,0,0,7.884-1.836,17.391,17.391,0,0,0,2.076-1.331,118.571,118.571,0,0,0,9.6-37.369Z"/></g></svg>